<?xml version="1.0" encoding="UTF-8" standalone="no"?>
<svg
   xmlns:dc="http://purl.org/dc/elements/1.1/"
   xmlns:cc="http://creativecommons.org/ns#"
   xmlns:rdf="http://www.w3.org/1999/02/22-rdf-syntax-ns#"
   xmlns:svg="http://www.w3.org/2000/svg"
   xmlns="http://www.w3.org/2000/svg"
   xmlns:xlink="http://www.w3.org/1999/xlink"
   xmlns:sodipodi="http://sodipodi.sourceforge.net/DTD/sodipodi-0.dtd"
   xmlns:inkscape="http://www.inkscape.org/namespaces/inkscape"
   width="1122.5197"
   height="793.70081"
   viewBox="0 0 296.99625 209.99736"
   version="1.1"
   id="svg861"
   inkscape:version="1.0.2-2 (e86c870879, 2021-01-15)"
   sodipodi:docname="logo1.svg"
   inkscape:export-filename="C:\Users\Boris\Desktop\Petra\Multimedijski sustavi\web stranica\logo.png"
   inkscape:export-xdpi="96"
   inkscape:export-ydpi="96">
  <defs
     id="defs855">
    <linearGradient
       inkscape:collect="always"
       id="linearGradient1639">
      <stop
         style="stop-color:#ffa500;stop-opacity:1;"
         offset="0"
         id="stop1635" />
      <stop
         style="stop-color:#ffa500;stop-opacity:0;"
         offset="1"
         id="stop1637" />
    </linearGradient>
    <inkscape:path-effect
       effect="bspline"
       id="path-effect1575"
       is_visible="true"
       lpeversion="1"
       weight="33.333333"
       steps="2"
       helper_size="0"
       apply_no_weight="true"
       apply_with_weight="true"
       only_selected="false" />
    <inkscape:path-effect
       effect="bspline"
       id="path-effect1571"
       is_visible="true"
       lpeversion="1"
       weight="33.333333"
       steps="2"
       helper_size="0"
       apply_no_weight="true"
       apply_with_weight="true"
       only_selected="false" />
    <linearGradient
       inkscape:collect="always"
       xlink:href="#linearGradient1639"
       id="linearGradient1641"
       x1="301.02545"
       y1="343.45187"
       x2="305.06607"
       y2="-128.28937"
       gradientUnits="userSpaceOnUse" />
  </defs>
  <sodipodi:namedview
     id="base"
     pagecolor="#ffffff"
     bordercolor="#666666"
     borderopacity="1.0"
     inkscape:pageopacity="0.0"
     inkscape:pageshadow="2"
     inkscape:zoom="0.49497475"
     inkscape:cx="589.03739"
     inkscape:cy="403.58897"
     inkscape:document-units="px"
     inkscape:current-layer="layer1"
     inkscape:document-rotation="0"
     showgrid="false"
     units="px"
     inkscape:pagecheckerboard="false"
     scale-x="0.16458"
     inkscape:window-width="1920"
     inkscape:window-height="1018"
     inkscape:window-x="-8"
     inkscape:window-y="-8"
     inkscape:window-maximized="1">
    <inkscape:grid
       type="xygrid"
       id="grid1541" />
  </sodipodi:namedview>
  <metadata
     id="metadata858">
    <rdf:RDF>
      <cc:Work
         rdf:about="">
        <dc:format>image/svg+xml</dc:format>
        <dc:type
           rdf:resource="http://purl.org/dc/dcmitype/StillImage" />
        <dc:title />
      </cc:Work>
    </rdf:RDF>
  </metadata>
  <g
     inkscape:label="Layer 1"
     inkscape:groupmode="layer"
     id="layer1">
    <g
       id="g1654"
       transform="matrix(2.081689,0,0,2.081689,-15.367583,-15.910707)">
      <path
         id="path1424"
         style="opacity:0.89;fill:url(#linearGradient1641);fill-opacity:1;stroke:none;stroke-width:1.00157;stroke-linecap:round;stroke-linejoin:round"
         d="M 297.76367,31.314453 A 257.58888,244.4569 0 0 0 40.40625,275.91797 257.58888,244.4569 0 0 0 42.962891,310.11719 H 128.9707 c 1.20026,-3.711 2.94699,-10.33785 -0.80273,-32.35157 a 7.1686235,7.3304829 0 0 1 0.002,0.11329 7.1686235,7.3304829 0 0 1 -7.17383,7.32617 7.1686235,7.3304829 0 0 1 -7.16601,-7.33203 v -0.008 a 7.1686235,7.3304829 0 0 1 0.52539,-2.74218 9.8096954,8.4300556 0 0 1 -7.29883,2.79492 9.8096954,8.4300556 0 0 1 -9.80664,-8.43164 v -0.0117 a 9.8096954,8.4300556 0 0 1 7.32422,-8.14258 10.564286,9.8961521 0 0 1 -4.30469,-7.97461 v -0.0117 a 10.564286,9.8961521 0 0 1 10.57422,-9.88281 10.564286,9.8961521 0 0 1 7.69336,3.12695 11.31888,10.995725 0 0 1 11.15039,-9.03711 11.31888,10.995725 0 0 1 8.93359,4.25977 9.8096912,11.172565 0 0 1 9.17383,-7.19141 h 0.004 v 0.002 a 9.8096912,11.172565 0 0 1 9.80078,11.18164 9.8096912,11.172565 0 0 1 -0.0195,0.65429 7.9232152,8.4300556 0 0 1 7.40234,-5.39453 7.9232152,8.4300556 0 0 1 7.91406,8.4336 7.9232152,8.4300556 0 0 1 -7.19726,8.38867 10.941582,10.629199 0 0 1 0.19922,2.03516 10.941582,10.629199 0 0 1 -10.94336,10.62109 10.941582,10.629199 0 0 1 -3.07813,-0.42969 14.337246,14.660966 0 0 1 -8.09765,9.81445 c -4.20037,19.75518 -2.04583,26.47304 -0.5625,30.18946 h 68.38281 v -77.27735 c 0,-0.11425 0.1392,-0.20703 0.31445,-0.20703 h 0.35156 l -0.17382,-0.14062 c -0.10349,-0.0806 -0.1024,-0.21127 0.002,-0.29102 l 85.44336,-65.20312 c 0.0522,-0.0417 0.12011,-0.0609 0.1875,-0.0606 h 0.002 c 0.0674,0 0.13276,0.0223 0.1836,0.0606 l 34.33398,27.19922 v -10.0293 c 0,-0.16845 0.13877,-0.30469 0.31055,-0.30469 h 10.88476 c 0.17178,0 0.31055,0.1362 0.31055,0.30469 v 19.14648 l 36.82422,29.16993 c 0.0646,0.0542 0.0772,0.12709 0.0508,0.19531 0.0782,0.0379 0.13672,0.0915 0.13672,0.16015 v 77.27735 h 59.55469 c 1.09107,-3.49547 5.27762,-8.3721 0.20898,-32.21094 a 14.337246,14.660966 0 0 1 -8.09961,-9.8125 10.941582,10.629199 0 0 1 -3.07617,0.42773 10.941582,10.629199 0 0 1 -10.94336,-10.62109 10.941582,10.629199 0 0 1 0.19727,-2.0332 7.9232151,8.4300555 0 0 1 -7.19532,-8.38867 7.9232151,8.4300555 0 0 1 7.91407,-8.43555 7.9232151,8.4300555 0 0 1 7.40039,5.39648 9.8096911,11.172565 0 0 1 -0.0176,-0.65625 9.8096911,11.172565 0 0 1 9.80078,-11.17968 v -0.002 l 0.004,-0.002 a 9.8096911,11.172565 0 0 1 9.17187,7.19336 11.31888,10.995725 0 0 1 8.93555,-4.25977 11.31888,10.995725 0 0 1 11.15039,9.03516 10.564286,9.896152 0 0 1 7.69336,-3.12695 10.564286,9.896152 0 0 1 10.57422,9.88476 v 0.01 a 10.564286,9.896152 0 0 1 -4.30469,7.97461 9.8096953,8.4300555 0 0 1 7.32422,8.14257 v 0.0117 a 9.8096953,8.4300555 0 0 1 -9.80664,8.43164 9.8096953,8.4300555 0 0 1 -7.29883,-2.79492 7.1686234,7.3304828 0 0 1 0.52344,2.74219 v 0.008 a 7.1686234,7.3304828 0 0 1 -7.16602,7.33399 7.1686234,7.3304828 0 0 1 -7.17187,-7.32617 7.1686234,7.3304828 0 0 1 0.002,-0.11329 c -4.51386,26.49979 -1.06678,30.71658 -0.19336,34.3711 h 97.08398 a 257.58888,244.4569 0 0 0 2.55664,-34.34571 v -0.29296 A 257.58888,244.4569 0 0 0 297.76367,31.314453 Z M 456.13672,275.74609 a 7.3572713,5.4978621 0 0 1 -0.22852,-0.33984 14.337246,14.660966 0 0 1 -0.38476,0.33984 z m -327.96875,2.01953 h 0.61328 a 14.337246,14.660966 0 0 1 -0.38477,-0.33984 7.3572714,5.4978622 0 0 1 -0.22851,0.33984 z m 222.68164,-135.4082 a 4.7257265,4.4327213 0 0 1 0.0879,0 4.7257265,4.4327213 0 0 1 4.73047,4.42774 v 0.004 a 4.7257265,4.4327213 0 0 1 -4.72266,4.4336 4.7257265,4.4327213 0 0 1 -4.72851,-4.43164 4.7257265,4.4327213 0 0 1 4.63281,-4.4336 z m -11.11133,10.07422 a 4.3147932,4.2312339 0 0 1 0.0723,0 4.3147932,4.2312339 0 0 1 0.0332,0 4.3147932,4.2312339 0 0 1 4.31836,4.22656 v 0.004 a 4.3147932,4.2312339 0 0 1 -4.31445,4.23047 4.3147932,4.2312339 0 0 1 -4.31446,-4.22852 4.3147932,4.2312339 0 0 1 4.20508,-4.23242 z m 11.35742,5.64063 a 2.0546635,1.6118987 0 0 1 0.0508,0 2.0546635,1.6118987 0 0 1 2.05664,1.61132 v 0.002 a 2.0546635,1.6118987 0 0 1 -2.05468,1.61133 2.0546635,1.6118987 0 0 1 -2.05664,-1.61133 2.0546635,1.6118987 0 0 1 2.0039,-1.61328 z m -20.99023,6.85156 a 2.876529,2.8208227 0 0 1 0.082,0 2.876529,2.8208227 0 0 1 2.87891,2.8164 v 0.004 a 2.876529,2.8208227 0 0 1 -2.875,2.82227 2.876529,2.8208227 0 0 1 -2.87696,-2.82227 2.876529,2.8208227 0 0 1 2.79102,-2.82031 z m 13.23047,2.82031 a 5.7530577,5.6416455 0 0 1 5.75586,5.63477 v 0.008 a 5.7530577,5.6416455 0 0 1 -5.75,5.64062 5.7530577,5.6416455 0 0 1 -5.75586,-5.63867 5.7530577,5.6416455 0 0 1 5.75,-5.64453 z m -49.10547,90.18555 c -5.66734,0.1361 -11.12894,5.67199 -13.76367,16.19922 v 35.98828 h 28.76562 v -35.98828 c -3.46121,-11.07165 -9.33461,-16.33533 -15.00195,-16.19922 z"
         transform="scale(0.26458333)" />
      <text
         xml:space="preserve"
         style="font-style:normal;font-variant:normal;font-weight:normal;font-stretch:normal;font-size:21.6666px;line-height:1.25;font-family:'Comic Sans MS';-inkscape-font-specification:'Comic Sans MS';fill:#ffa500;fill-opacity:1;stroke:none;stroke-width:0.541664"
         x="32.605072"
         y="98.973618"
         id="text1645"
         transform="scale(0.97966505,1.020757)"><tspan
           sodipodi:role="line"
           x="32.605072"
           y="98.973618"
           style="font-style:normal;font-variant:normal;font-weight:normal;font-stretch:normal;font-family:'Comic Sans MS';-inkscape-font-specification:'Comic Sans MS';fill:#ffa500;fill-opacity:1;stroke-width:0.541664"
           id="tspan1647">Vergotini</tspan></text>
    </g>
  </g>
</svg>
